{"title":"Harry Potter And The Deathly Hallows Part 2 2011 1080p Bluray x2","uid":6783202,"size":3302139541,"categoryP":"video","categoryS":"hd___movies","magnet":"?xt=urn:btih:0ed23a8dea76cbc9dc9e58054a66de5a730ea101&amp;dn=Harry+Potter+And+The+Deathly+Hallows+Part+2+2011+1080p+Bluray+x2&amp;tr=udp%3A%2F%2Ftracker.openbittorrent.com%3A80&amp;tr=udp%3A%2F%2Fopen.demonii.com%3A1337&amp;tr=udp%3A%2F%2Ftracker.coppersurfer.tk%3A6969&amp;tr=udp%3A%2F%2Fexodus.desync.com%3A6969","seeders":9,"leechers":2,"uploader":"harrylala","files":2,"time":1319989283,"description":"\nGeneral\nComplete name                    :Harry Potter And The Deathly Hallows Part 2 2011    1080p Bluray x264 (DTS) - HarryLala.mkv\nFormat                           : Matroska\nFile size                        : 3.03 GiB\nDuration                         : 2h 10mn\nOverall bit rate                 : 3 320 Kbps\nEncoded date                     : UTC 2011-10-30 13:00:31\nWriting application              : mkvmerge v4.9.1 ('Ich will') built on Jul 11 2011 23:53:15\nWriting library                  : libebml v1.2.1 + libmatroska v1.1.1\n\nVideo\nID                               : 1\nFormat                           : AVC\nFormat/Info                      : Advanced Video Codec\nFormat profile                   : &lt;a class=&quot;__cf_email__&quot; href=&quot;/cdn-cgi/l/email-protection&quot; data-cfemail=&quot;6d25040a052d2159435d&quot;&gt;[email&amp;#160;protected]&lt;/a&gt;&lt;script cf-hash='f9e31' type=&quot;text/javascript&quot;&gt;\n/* &lt;![CDATA[ */!function(){try{var t=&quot;currentScript&quot;in document?document.currentScript:function(){for(var t=document.getElementsByTagName(&quot;script&quot;),e=t.length;e--;)if(t[e].getAttribute(&quot;cf-hash&quot;))return t[e]}();if(t&amp;&amp;t.previousSibling){var e,r,n,i,c=t.previousSibling,a=c.getAttribute(&quot;data-cfemail&quot;);if(a){for(e=&quot;&quot;,r=parseInt(a.substr(0,2),16),n=2;a.length-n;n+=2)i=parseInt(a.substr(n,2),16)^r,e+=String.fromCharCode(i);e=document.createTextNode(e),c.parentNode.replaceChild(e,c)}}}catch(u){}}();/* ]]&gt; */&lt;/script&gt;\nFormat settings, CABAC           : Yes\nFormat settings, ReFrames        : 4 frames\nMuxing mode                      : Header stripping\nCodec ID                         : V_MPEG4/ISO/AVC\nDuration                         : 2h 10mn\nBit rate                         : 1 812 Kbps\nWidth                            : 1 920 pixels\nHeight                           : 800 pixels\nDisplay aspect ratio             : 2.40:1\nFrame rate                       : 23.976 fps\nColor space                      : YUV\nChroma subsampling               : 4:2:0\nBit depth                        : 8 bits\nScan type                        : Progressive\nBits/(Pixel*Frame)               : 0.049\nStream size                      : 1.59 GiB (53%)\nWriting library                  : x264 core 116 r2074 2641b9e\n\nAudio\nID                               : 2\nFormat                           : DTS\nFormat/Info                      : Digital Theater Systems\nMuxing mode                      : Header stripping\nCodec ID                         : A_DTS\nDuration                         : 2h 10mn\nBit rate mode                    : Constant\nBit rate                         : 1 510 Kbps\nChannel(s)                       : 6 channels\nChannel positions                : Front: L C R, Side: L R, LFE\nSampling rate                    : 48.0 KHz\nBit depth                        : 24 bits\nCompression mode                 : Lossy\nStream size                      : 1.38 GiB (45%)\n\nText\nID                               : 3\nFormat                           : UTF-8\nCodec ID                         : S_TEXT/UTF8\nCodec ID/Info                    : UTF-8 Plain Text\n","torrent":{"xt":"urn:btih:0ed23a8dea76cbc9dc9e58054a66de5a730ea101","amp;dn":"Harry+Potter+And+The+Deathly+Hallows+Part+2+2011+1080p+Bluray+x2","amp;tr":["udp%3A%2F%2Ftracker.openbittorrent.com%3A80","udp%3A%2F%2Fopen.demonii.com%3A1337","udp%3A%2F%2Ftracker.coppersurfer.tk%3A6969","udp%3A%2F%2Fexodus.desync.com%3A6969"],"infoHash":"0ed23a8dea76cbc9dc9e58054a66de5a730ea101","infoHashBuffer":{"type":"Buffer","data":[14,210,58,141,234,118,203,201,220,158,88,5,74,102,222,90,115,14,161,1]},"announce":[],"urlList":[]}}